<svg width="45" height="38" viewBox="0 0 45 38" fill="none" xmlns="http://www.w3.org/2000/svg">
<path d="M34.4999 32H30.4999C29.9332 32 29.4586 31.808 29.0759 31.424C28.6932 31.04 28.5012 30.5653 28.4999 30C28.4986 29.4347 28.6906 28.96 29.0759 28.576C29.4612 28.192 29.9359 28 30.4999 28H34.4999V24C34.4999 23.4333 34.6919 22.9587 35.0759 22.576C35.4599 22.1933 35.9346 22.0013 36.4999 22C37.0652 21.9987 37.5406 22.1907 37.9259 22.576C38.3112 22.9613 38.5026 23.436 38.4999 24V28H42.4999C43.0666 28 43.5419 28.192 43.9259 28.576C44.3099 28.96 44.5012 29.4347 44.4999 30C44.4986 30.5653 44.3066 31.0407 43.9239 31.426C43.5412 31.8113 43.0666 32.0027 42.4999 32H38.4999V36C38.4999 36.5667 38.3079 37.042 37.9239 37.426C37.5399 37.81 37.0652 38.0013 36.4999 38C35.9346 37.9987 35.4599 37.8067 35.0759 37.424C34.6919 37.0413 34.4999 36.5667 34.4999 36V32ZM4.4999 32C3.93324 32 3.45857 31.808 3.0759 31.424C2.69324 31.04 2.50124 30.5653 2.4999 30V20H2.1499C1.51657 20 0.999902 19.758 0.599902 19.274C0.199902 18.79 0.066569 18.232 0.199902 17.6L2.1999 7.6C2.2999 7.13333 2.53324 6.75 2.8999 6.45C3.26657 6.15 3.68324 6 4.1499 6H30.8499C31.3166 6 31.7332 6.15 32.0999 6.45C32.4666 6.75 32.6999 7.13333 32.7999 7.6L34.7999 17.6C34.9332 18.2333 34.7999 18.792 34.3999 19.276C33.9999 19.76 33.4832 20.0013 32.8499 20H32.4999V24C32.4999 24.5667 32.3079 25.042 31.9239 25.426C31.5399 25.81 31.0652 26.0013 30.4999 26C29.9346 25.9987 29.4599 25.8067 29.0759 25.424C28.6919 25.0413 28.4999 24.5667 28.4999 24V20H20.4999V30C20.4999 30.5667 20.3079 31.042 19.9239 31.426C19.5399 31.81 19.0652 32.0013 18.4999 32H4.4999ZM6.4999 28H16.4999V20H6.4999V28ZM4.4999 4C3.93324 4 3.45857 3.808 3.0759 3.424C2.69324 3.04 2.50124 2.56533 2.4999 2C2.49857 1.43467 2.69057 0.96 3.0759 0.576C3.46124 0.192 3.9359 0 4.4999 0H30.4999C31.0666 0 31.5419 0.192 31.9259 0.576C32.3099 0.96 32.5012 1.43467 32.4999 2C32.4986 2.56533 32.3066 3.04067 31.9239 3.426C31.5412 3.81133 31.0666 4.00267 30.4999 4H4.4999Z" fill="white"/>
</svg>
