<svg width="41" height="42" viewBox="0 0 41 42" fill="none" xmlns="http://www.w3.org/2000/svg">
<path d="M20.5232 15.3094C19.1217 15.3094 17.8092 15.8531 16.8154 16.8469C15.8263 17.8406 15.2779 19.1531 15.2779 20.5547C15.2779 21.9562 15.8263 23.2687 16.8154 24.2625C17.8092 25.2515 19.1217 25.8 20.5232 25.8C21.9248 25.8 23.2373 25.2515 24.231 24.2625C25.2201 23.2687 25.7685 21.9562 25.7685 20.5547C25.7685 19.1531 25.2201 17.8406 24.231 16.8469C23.7456 16.3577 23.1679 15.97 22.5314 15.706C21.8949 15.4421 21.2123 15.3072 20.5232 15.3094ZM39.8498 26.3484L36.7842 23.7281C36.9295 22.8375 37.0045 21.9281 37.0045 21.0234C37.0045 20.1187 36.9295 19.2047 36.7842 18.3187L39.8498 15.6984C40.0814 15.5002 40.2471 15.2361 40.325 14.9414C40.4028 14.6466 40.3892 14.3352 40.2857 14.0484L40.2435 13.9265C39.3998 11.5673 38.1357 9.38039 36.5123 7.47185L36.4279 7.37341C36.2308 7.14163 35.968 6.97501 35.6743 6.89551C35.3806 6.81602 35.0697 6.82738 34.7826 6.9281L30.9763 8.28279C29.5701 7.12966 28.0045 6.22029 26.3076 5.58748L25.5717 1.60779C25.5161 1.30799 25.3707 1.03217 25.1547 0.816997C24.9387 0.601819 24.6623 0.45746 24.3623 0.403101L24.2357 0.379663C21.7982 -0.0609619 19.2295 -0.0609619 16.792 0.379663L16.6654 0.403101C16.3654 0.45746 16.089 0.601819 15.873 0.816997C15.657 1.03217 15.5116 1.30799 15.456 1.60779L14.7154 5.60623C13.0346 6.24405 11.4688 7.15123 10.0795 8.29216L6.24509 6.9281C5.95806 6.82658 5.64692 6.81481 5.35304 6.89435C5.05915 6.97389 4.79643 7.14098 4.59978 7.37341L4.5154 7.47185C2.89487 9.38241 1.63102 11.5688 0.784154 13.9265L0.741966 14.0484C0.531029 14.6344 0.704466 15.2906 1.1779 15.6984L4.28103 18.3469C4.13572 19.2281 4.0654 20.1281 4.0654 21.0187C4.0654 21.9187 4.13572 22.8187 4.28103 23.6906L1.18728 26.339C0.955696 26.5373 0.789949 26.8013 0.712078 27.0961C0.634207 27.3908 0.647902 27.7023 0.751341 27.989L0.793528 28.1109C1.64197 30.4687 2.89353 32.6484 4.52478 34.5656L4.60915 34.664C4.80628 34.8958 5.06902 35.0625 5.36273 35.1419C5.65644 35.2214 5.96734 35.2101 6.25447 35.1094L10.0888 33.7453C11.4857 34.8937 13.042 35.8031 14.7248 36.4312L15.4654 40.4297C15.5209 40.7295 15.6664 41.0053 15.8824 41.2205C16.0984 41.4356 16.3748 41.58 16.6748 41.6344L16.8013 41.6578C19.2628 42.1008 21.7836 42.1008 24.2451 41.6578L24.3717 41.6344C24.6717 41.58 24.948 41.4356 25.1641 41.2205C25.3801 41.0053 25.5255 40.7295 25.581 40.4297L26.317 36.45C28.0138 35.8125 29.5795 34.9078 30.9857 33.7547L34.792 35.1094C35.079 35.2109 35.3901 35.2226 35.684 35.1431C35.9779 35.0636 36.2406 34.8965 36.4373 34.664L36.5217 34.5656C38.1529 32.639 39.4045 30.4687 40.2529 28.1109L40.2951 27.989C40.4967 27.4078 40.3232 26.7562 39.8498 26.3484ZM20.5232 28.7953C15.9717 28.7953 12.2826 25.1062 12.2826 20.5547C12.2826 16.0031 15.9717 12.314 20.5232 12.314C25.0748 12.314 28.7638 16.0031 28.7638 20.5547C28.7638 25.1062 25.0748 28.7953 20.5232 28.7953Z" fill="#401515"/>
</svg>
