<svg width="41" height="41" viewBox="0 0 41 41" fill="none" xmlns="http://www.w3.org/2000/svg">
<path d="M36.8201 22.46C38.1502 21.1318 39.1646 19.5215 39.7884 17.7484C40.4122 15.9752 40.6294 14.0845 40.424 12.216C40.2185 10.3476 39.5956 8.54926 38.6014 6.95402C37.6072 5.35878 36.267 4.00746 34.6801 3.00001C30.6601 0.340012 25.2801 0.320012 21.2201 2.94001C17.7001 5.20001 15.7601 8.72001 15.4201 12.36C15.1601 15 14.1601 17.46 12.3201 19.3L12.2601 19.36C9.94011 21.68 9.94011 25.22 12.1201 27.38L14.1001 29.36C15.148 30.4072 16.5687 30.9954 18.0501 30.9954C19.5315 30.9954 20.9523 30.4072 22.0001 29.36C23.9401 27.42 26.5001 26.36 29.2801 26.06C32.0201 25.76 34.7001 24.56 36.8201 22.46ZM9.02011 36.72C9.56011 37.84 9.38011 39.2 8.44011 40.12C8.033 40.5333 7.51412 40.8187 6.94713 40.9413C6.38014 41.064 5.78968 41.0184 5.24819 40.8103C4.7067 40.6022 4.23772 40.2406 3.89878 39.7698C3.55984 39.299 3.36568 38.7395 3.34011 38.16C2.76058 38.1344 2.2011 37.9403 1.73031 37.6013C1.25953 37.2624 0.897907 36.7934 0.689805 36.2519C0.481703 35.7104 0.43617 35.12 0.558792 34.553C0.681415 33.986 0.96686 33.4671 1.38011 33.06C2.30011 32.14 3.68011 31.94 4.78011 32.48L9.74011 27.62C10.0201 28 10.3401 28.44 10.7001 28.8L12.6801 30.78C13.1001 31.18 13.5001 31.52 14.0201 31.82L9.02011 36.72Z" fill="white"/>
</svg>
