<svg width="44" height="44" viewBox="0 0 44 44" fill="none" xmlns="http://www.w3.org/2000/svg">
<path d="M20.6301 21.375C20.6301 21.9717 20.3931 22.544 19.9711 22.966C19.5492 23.3879 18.9769 23.625 18.3801 23.625C17.7834 23.625 17.2111 23.3879 16.7891 22.966C16.3672 22.544 16.1301 21.9717 16.1301 21.375C16.1301 20.7783 16.3672 20.206 16.7891 19.784C17.2111 19.3621 17.7834 19.125 18.3801 19.125C18.9769 19.125 19.5492 19.3621 19.9711 19.784C20.3931 20.206 20.6301 20.7783 20.6301 21.375Z" fill="white"/>
<path d="M29.2851 0C34.2891 0.1155 36.7401 6.051 33.5901 9.753C36.4336 12.0553 38.3726 15.2879 39.0651 18.8805L43.0341 36.678C43.1196 37.065 43.1556 37.458 43.1736 37.8L43.1751 37.8375V37.875C43.1764 38.9896 42.8464 40.0795 42.227 41.0062C41.6075 41.9329 40.7266 42.6545 39.6961 43.0794C38.6656 43.5043 37.5321 43.6133 36.4396 43.3925C35.347 43.1717 34.3447 42.6312 33.5601 41.8395C33.0368 42.365 32.4151 42.7822 31.7304 43.0671C31.0458 43.352 30.3116 43.4991 29.5701 43.5C28.8282 43.5008 28.0936 43.3544 27.4087 43.0694C26.7239 42.7844 26.1023 42.3663 25.5801 41.8395C25.0568 42.365 24.4351 42.7822 23.7504 43.0671C23.0658 43.352 22.3316 43.4991 21.5901 43.5C20.8481 43.5006 20.1135 43.354 19.4286 43.0687C18.7437 42.7834 18.1222 42.3651 17.6001 41.838C17.0731 42.3712 16.4444 42.7931 15.7513 43.0786C15.0581 43.3641 14.3147 43.5074 13.5651 43.5C10.7241 43.4805 8.45306 41.34 8.04806 38.658C7.63869 38.8833 7.17883 39.001 6.71156 39C4.73606 39 3.40256 36.99 4.14656 35.154L5.48156 31.965C5.65106 31.563 5.91056 31.2165 6.23156 30.9495C4.53656 30.4965 2.88956 29.6805 1.44506 28.2225C0.686062 27.462 0.428061 26.5815 0.540561 25.686C0.615562 25.0935 0.872062 24.4785 1.04156 24.0735L1.11656 23.8905L1.14056 23.8305L1.17056 23.775C2.11106 21.909 3.24656 20.4045 4.66106 19.3005C5.85663 18.3702 7.25084 17.7286 8.73506 17.4255C8.76506 17.3305 8.79656 17.2355 8.82956 17.1405C8.3292 16.3158 8.04398 15.3786 8.00006 14.415C7.94194 13.1203 8.31764 11.8432 9.06758 10.7862C9.81753 9.72924 10.8988 8.9528 12.1401 8.58C12.6351 8.43 12.9651 7.98 12.9651 7.47V7.455C12.9651 4.245 15.5601 1.65 18.7701 1.65C19.6101 1.65 20.4051 1.83 21.1251 2.145C22.2651 2.655 23.6151 2.46 24.5751 1.65C25.8376 0.593556 27.4289 0.0101033 29.0751 0H29.2851ZM7.98506 26.25H3.71906C4.92806 27.408 6.35456 27.984 7.98506 28.2645V26.25ZM7.98506 24.75V22.29C7.98506 21.775 8.00906 21.2655 8.05706 20.7615C7.50188 20.9906 6.98057 21.2944 6.50756 21.6645C5.60906 22.3665 4.79156 23.364 4.04456 24.75H7.98506ZM36.1221 19.4655C35.558 16.5093 33.9471 13.8556 31.5849 11.991C29.2226 10.1263 26.2674 9.17572 23.2611 9.3135C16.3911 9.609 10.9851 15.3765 10.9851 22.29V37.8C10.9851 39.2925 12.1701 40.491 13.5906 40.5H13.5966C14.0248 40.5015 14.447 40.3987 14.8267 40.2007C15.2064 40.0026 15.5322 39.7151 15.7761 39.363L15.7791 39.3585C16.6596 38.1285 18.5331 38.0685 19.4316 39.3735C19.9176 40.0605 20.7006 40.5 21.5901 40.5C22.015 40.4979 22.4333 40.3938 22.8097 40.1965C23.1861 39.9991 23.5096 39.7143 23.7531 39.366L23.7591 39.3585C24.6381 38.1285 26.5131 38.0685 27.4116 39.3735C27.8976 40.0605 28.6806 40.5 29.5701 40.5C29.995 40.4979 30.4133 40.3938 30.7897 40.1965C31.1661 39.9991 31.4896 39.7143 31.7331 39.366L31.7391 39.3585C32.6181 38.1285 34.4931 38.0685 35.3916 39.3735C35.8776 40.0605 36.6606 40.5 37.5501 40.5C38.9901 40.5 40.1556 39.345 40.1751 37.9095C40.167 37.7155 40.144 37.5224 40.1061 37.332L36.1266 19.4895L36.1221 19.4655Z" fill="white"/>
</svg>
