<svg width="43" height="42" viewBox="0 0 43 42" fill="none" xmlns="http://www.w3.org/2000/svg">
<path d="M23.318 0.549541C21.5108 -0.18318 19.4892 -0.18318 17.682 0.549541L13.302 2.32554L32.486 9.78554L39.234 7.17954C38.9565 6.95133 38.6464 6.76594 38.314 6.62954L23.318 0.549541ZM40.5 9.90554L22 17.0535V30.7355L33.286 19.4495C34.2123 18.5244 35.3936 17.8966 36.6787 17.6465C37.9638 17.3964 39.2943 17.5353 40.5 18.0455V9.90554ZM19 17.0535V36.8475L18.626 38.3415C18.5881 38.4897 18.5587 38.64 18.538 38.7915C18.2474 38.7111 17.9616 38.6143 17.682 38.5015L2.686 32.4215C2.04007 32.1599 1.48695 31.7114 1.0975 31.1334C0.708045 30.5555 0.499996 29.8745 0.5 29.1775V9.90754L19 17.0535ZM1.766 7.17954L20.5 14.4175L28.334 11.3895L9.248 3.96954L2.686 6.62954C2.34467 6.76821 2.038 6.95154 1.766 7.17954ZM34.7 20.8635L22.894 32.6695C22.2073 33.3585 21.7194 34.2202 21.482 35.1635L20.566 38.8255C20.4749 39.1899 20.4797 39.5716 20.5801 39.9335C20.6804 40.2955 20.8727 40.6252 21.1384 40.8907C21.4041 41.1562 21.734 41.3483 22.096 41.4483C22.458 41.5484 22.8397 41.5529 23.204 41.4615L26.864 40.5475C27.8083 40.3099 28.6707 39.8213 29.36 39.1335L41.164 27.3295C41.9995 26.4679 42.4627 25.3122 42.4535 24.112C42.4443 22.9118 41.9636 21.7633 41.115 20.9145C40.2665 20.0657 39.1182 19.5846 37.918 19.575C36.7178 19.5655 35.5619 20.0283 34.7 20.8635Z" fill="white"/>
</svg>
