<svg width="49" height="48" viewBox="0 0 49 48" fill="none" xmlns="http://www.w3.org/2000/svg">
<path d="M45.8582 3.04218C45.5032 2.95776 45.1297 3.00333 44.8054 3.17062L42.5001 4.32187L40.1751 3.15937C39.9669 3.05524 39.7372 3.00103 39.5043 3.00103C39.2715 3.00103 39.0418 3.05524 38.8336 3.15937L36.4795 4.32281L34.1564 3.15937C33.9475 3.05448 33.717 2.99986 33.4832 2.99986C33.2495 2.99986 33.019 3.05448 32.8101 3.15937L30.5001 4.31906L28.2079 3.16218C27.9996 3.05657 27.7695 3.00107 27.5359 3.00009C27.3024 2.99911 27.0718 3.05269 26.8626 3.15656L24.5001 4.32375L22.1751 3.15843C21.9665 3.05435 21.7365 3.00018 21.5034 3.00018C21.2703 3.00018 21.0403 3.05435 20.8317 3.15843L18.5001 4.32187L16.1714 3.15843C15.8712 3.00794 15.5291 2.96255 15.2001 3.02952C14.871 3.09649 14.5739 3.27195 14.3564 3.52781C14.1219 3.80724 13.9955 4.16152 14.0001 4.52625V27L14.0048 27.0047H32.0001C32.7958 27.0047 33.5588 27.3208 34.1214 27.8834C34.684 28.446 35.0001 29.209 35.0001 30.0047V39.75C35.0001 42.6497 38.1004 45 41.0001 45H42.1251C43.4181 45 44.658 44.4864 45.5723 43.5721C46.4865 42.6579 47.0001 41.4179 47.0001 40.125V4.5C47.0004 4.16427 46.888 3.83815 46.681 3.57385C46.474 3.30955 46.1843 3.12234 45.8582 3.04218ZM39.5001 22.5H27.547C26.737 22.5 26.0376 21.8775 26.002 21.0675C25.9929 20.8651 26.0249 20.6629 26.096 20.4732C26.1672 20.2834 26.2761 20.1101 26.4161 19.9636C26.5561 19.8171 26.7243 19.7005 26.9106 19.6208C27.097 19.5411 27.2975 19.5 27.5001 19.5H39.4532C40.2632 19.5 40.9626 20.1225 40.9982 20.9325C41.0074 21.1349 40.9754 21.3371 40.9042 21.5268C40.833 21.7166 40.7242 21.8899 40.5842 22.0364C40.4441 22.1829 40.2759 22.2995 40.0896 22.3792C39.9033 22.4588 39.7028 22.4999 39.5001 22.5ZM39.5001 15H21.547C20.737 15 20.0376 14.3775 20.002 13.5675C19.9929 13.3651 20.0249 13.1629 20.096 12.9732C20.1672 12.7834 20.2761 12.6101 20.4161 12.4636C20.5561 12.3171 20.7243 12.2005 20.9106 12.1208C21.097 12.0411 21.2975 12 21.5001 12H39.4532C40.2632 12 40.9626 12.6225 40.9982 13.4325C41.0074 13.6349 40.9754 13.8371 40.9042 14.0268C40.833 14.2166 40.7242 14.3899 40.5842 14.5364C40.4441 14.6829 40.2759 14.7995 40.0896 14.8792C39.9033 14.9588 39.7028 14.9999 39.5001 15Z" fill="white"/>
<path d="M32 39.75V31.5C32 31.1022 31.842 30.7206 31.5607 30.4393C31.2794 30.158 30.8978 30 30.5 30H5C4.2043 30.0025 3.44197 30.32 2.87976 30.8831C2.31755 31.4462 2.00124 32.209 2 33.0047C2 37.7437 2.54187 39.7144 3.35562 41.2144C4.73656 43.7616 7.23688 45 11 45H34.0325C34.1065 45.0001 34.1788 44.9782 34.2404 44.9373C34.3021 44.8963 34.3502 44.838 34.3787 44.7698C34.4073 44.7015 34.415 44.6263 34.401 44.5537C34.3869 44.4811 34.3517 44.4142 34.2997 44.3616C33.4128 43.4719 32 42.2812 32 39.75Z" fill="white"/>
</svg>
